<svg version="1.0" width="2048" xmlns:algsvg="http://dtd.allegorithmic.com/algsvg.dtd" xmlns="http://www.w3.org/2000/svg" height="2048" algsvg:version="1.0">
 <path fill="rgb(127,127,127)" transform="matrix(2048,0,0,-2048,0,2048)" d="M0.0199424,0.550765 L0.0199425,0.595039 L0.0199429,0.639313 L0.0199434,0.683588 L0.0199436,0.727862 L0.0199439,0.772136 L0.019944,0.816411 L0.058287,0.838548 L0.0966299,0.860685 L0.134973,0.882823 L0.173316,0.90496 L0.211658,0.927098 L0.249999,0.949235 L0.288342,0.927098 L0.326684,0.90496 L0.365027,0.882823 L0.40337,0.860686 L0.441713,0.838548 L0.480056,0.816411 L0.480056,0.772137 L0.480057,0.727862 L0.480057,0.683588 L0.480057,0.639314 L0.480058,0.595039 L0.480058,0.550765 L0.441715,0.572902 L0.403372,0.595039 L0.36503,0.617176 L0.326687,0.639313 L0.288344,0.66145 L0.250001,0.683587 L0.211656,0.66145 L0.173313,0.639313 L0.134971,0.617176 L0.096628,0.595039 L0.058285,0.572902 L0.0199424,0.550765 Z"/>
 <path fill="rgb(127,127,127)" transform="matrix(2048,0,0,-2048,0,2048)" d="M0.0199429,0.500001 L0.0582859,0.477864 L0.0966288,0.455727 L0.134971,0.43359 L0.173314,0.411452 L0.211656,0.389315 L0.249999,0.367178 L0.288342,0.389315 L0.326685,0.411452 L0.365028,0.433588 L0.403371,0.455725 L0.441715,0.477862 L0.480058,0.499999 L0.441715,0.522136 L0.365029,0.566411 L0.288343,0.610685 L0.25,0.632822 L0.211658,0.610686 L0.173315,0.588549 L0.134972,0.566412 L0.096629,0.544275 L0.0582861,0.522138 L0.0199429,0.500001 Z"/>
 <path fill="rgb(127,127,127)" transform="matrix(2048,0,0,-2048,0,2048)" d="M0.0199432,0.449234 L0.0199435,0.404959 L0.0199437,0.360685 L0.0199439,0.316411 L0.019944,0.272136 L0.0199444,0.227862 L0.0199447,0.183588 L0.0582875,0.16145 L0.0966301,0.139313 L0.134973,0.117176 L0.173316,0.0950382 L0.211659,0.0729009 L0.250002,0.0507635 L0.288344,0.0729014 L0.326686,0.0950395 L0.365029,0.117178 L0.403371,0.139316 L0.441714,0.161453 L0.480056,0.183592 L0.480056,0.227866 L0.480055,0.27214 L0.480055,0.316415 L0.480054,0.360689 L0.480054,0.404964 L0.480053,0.449238 L0.441711,0.4271 L0.403368,0.404962 L0.365026,0.382824 L0.326684,0.360686 L0.288341,0.338549 L0.249999,0.316411 L0.211657,0.338548 L0.173314,0.360685 L0.134971,0.382822 L0.0966287,0.404959 L0.0582859,0.427097 L0.0199432,0.449234 Z"/>
 <path fill="rgb(127,127,127)" transform="matrix(2048,0,0,-2048,0,2048)" d="M0.519942,0.550765 L0.519943,0.595039 L0.519943,0.639314 L0.519943,0.683588 L0.519944,0.727862 L0.519944,0.772137 L0.519944,0.816411 L0.558287,0.838548 L0.59663,0.860686 L0.634973,0.882823 L0.673316,0.90496 L0.711658,0.927097 L0.750001,0.949235 L0.788342,0.927098 L0.826684,0.90496 L0.865027,0.882823 L0.90337,0.860686 L0.941713,0.838548 L0.980056,0.816411 L0.980056,0.772137 L0.980057,0.727862 L0.980057,0.683588 L0.980057,0.639314 L0.980057,0.595039 L0.980058,0.550765 L0.941715,0.572902 L0.903372,0.595039 L0.86503,0.617176 L0.826687,0.639313 L0.788344,0.661451 L0.749999,0.683588 L0.711656,0.66145 L0.673313,0.639313 L0.634971,0.617176 L0.596628,0.595039 L0.558285,0.572902 L0.519942,0.550765 Z"/>
 <path fill="rgb(127,127,127)" transform="matrix(2048,0,0,-2048,0,2048)" d="M0.519943,0.499999 L0.558286,0.522136 L0.596628,0.544273 L0.634971,0.566411 L0.673314,0.588548 L0.711656,0.610685 L0.749999,0.632822 L0.788342,0.610685 L0.826685,0.588549 L0.865028,0.566412 L0.903372,0.544275 L0.941715,0.522138 L0.980058,0.500001 L0.941715,0.477864 L0.903372,0.455727 L0.865029,0.433589 L0.826686,0.411452 L0.788343,0.389315 L0.75,0.367177 L0.711657,0.389314 L0.673315,0.411451 L0.634972,0.433588 L0.596629,0.455725 L0.558286,0.477862 L0.519943,0.499999 Z"/>
 <path fill="rgb(127,127,127)" transform="matrix(2048,0,0,-2048,0,2048)" d="M0.519943,0.316411 L0.519943,0.272137 L0.519944,0.227862 L0.519943,0.183588 L0.558286,0.161451 L0.596629,0.139313 L0.634972,0.117176 L0.673315,0.0950388 L0.711658,0.0729013 L0.75,0.0507639 L0.788343,0.0729015 L0.826685,0.0950394 L0.865028,0.117177 L0.903371,0.139315 L0.941714,0.161452 L0.980056,0.18359 L0.980056,0.227864 L0.980056,0.272138 L0.980056,0.316413 L0.980056,0.360687 L0.980056,0.404961 L0.980056,0.449236 L0.941713,0.427098 L0.903371,0.404961 L0.865028,0.382824 L0.826686,0.360686 L0.788343,0.338549 L0.750001,0.316411 L0.711657,0.338548 L0.673314,0.360685 L0.634972,0.382823 L0.596629,0.40496 L0.558286,0.427097 L0.519944,0.449235 L0.519943,0.40496 L0.519944,0.360686 L0.519943,0.316411 Z"/>
</svg>
